<svg width="41px" height="41px" viewBox="0 0 41 41" version="1.1" xmlns="http://www.w3.org/2000/svg" xmlns:xlink="http://www.w3.org/1999/xlink">
    <!-- Generator: Sketch 54.1 (76490) - https://sketchapp.com -->
    <title>LinkedIn</title>
    <desc>Created with Sketch.</desc>
    <g id="LinkedIn" stroke="none" stroke-width="1" fill="none" fill-rule="evenodd">
        <path d="M0,0 L41,0 L41,41 L0,41 L0,0 Z M13.1875,10.6086957 C13.1875,9.16869565 12.03125,8 10.6041667,8 C9.17708333,8 8.02083333,9.16869565 8.02083333,10.6086957 C8.02083333,12.0497391 9.17708333,13.2173913 10.6041667,13.2173913 C12.03125,13.2173913 13.1875,12.0497391 13.1875,10.6086957 Z M13.2083333,15.3043478 L8,15.3043478 L8,32 L13.2083333,32 L13.2083333,15.3043478 Z M21.5229167,15.3043478 L16.3479167,15.3043478 L16.3479167,32 L21.5239583,32 L21.5239583,23.2358261 C21.5239583,18.3627826 27.8041667,17.9641739 27.8041667,23.2358261 L27.8041667,32 L33,32 L33,21.4285217 C33,13.205913 23.70625,13.5053913 21.5229167,17.5530435 L21.5229167,15.3043478 Z" fill="#FFFFFF"></path>
    </g>
</svg>