<?xml version="1.0" encoding="UTF-8"?>
<svg width="19px" height="19px" viewBox="0 0 19 19" version="1.1" xmlns="http://www.w3.org/2000/svg" xmlns:xlink="http://www.w3.org/1999/xlink">
    <!-- Generator: Sketch 55.2 (78181) - https://sketchapp.com -->
    <title>Shape</title>
    <desc>Created with Sketch.</desc>
    <g id="Finished-Pages" stroke="none" stroke-width="1" fill="none" fill-rule="evenodd">
        <g id="Blog-/Desktop-Copy" transform="translate(-914.000000, -660.000000)" fill="#FFFFFF" fill-rule="nonzero">
            <path d="M933,677.136417 L928.048301,672.224125 C928.979588,670.9535 929.53022,669.39075 929.53022,667.702917 C929.53022,663.455625 926.046873,660 921.764711,660 C917.483347,660 914,663.455625 914,667.702917 C914,671.951 917.483347,675.405833 921.764711,675.405833 C923.387879,675.405833 924.895334,674.909458 926.143433,674.061583 L931.121467,679 L933,677.136417 L933,677.136417 Z M916.277542,667.702917 C916.277542,664.700917 918.739426,662.258625 921.765509,662.258625 C924.791591,662.258625 927.253476,664.700917 927.253476,667.702917 C927.253476,670.704917 924.791591,673.147208 921.765509,673.147208 C918.738628,673.147208 916.277542,670.704917 916.277542,667.702917 Z" id="Shape"></path>
        </g>
    </g>
</svg>