<svg width="41px" height="41px" viewBox="0 0 41 41" version="1.1" xmlns="http://www.w3.org/2000/svg" xmlns:xlink="http://www.w3.org/1999/xlink">
    <!-- Generator: Sketch 54.1 (76490) - https://sketchapp.com -->
    <title>Twitter</title>
    <desc>Created with Sketch.</desc>
    <g id="Twitter" stroke="none" stroke-width="1" fill="none" fill-rule="evenodd">
        <path d="M0,0 L41,0 L41,41 L0,41 L0,0 Z M35,11.8412633 C33.9330417,12.3236259 32.7863333,12.6484824 31.5828333,12.7949139 C32.8117083,12.0455291 33.7554167,10.8580804 34.198875,9.44298605 C33.04975,10.1369975 31.7761667,10.6415094 30.4204167,10.9134537 C29.3365417,9.73584906 27.7886667,9 26.0776667,9 C22.236375,9 19.4137083,12.6497129 20.2812917,16.4384742 C15.338,16.1862182 10.9541667,13.7744053 8.019125,10.1086957 C6.460375,12.8318294 7.21075,16.3941756 9.85941667,18.1981132 C8.8855,18.1661198 7.96716667,17.8941756 7.16604167,17.4401148 C7.10079167,20.2469237 9.07641667,22.8728466 11.93775,23.4573421 C11.100375,23.6886792 10.18325,23.742822 9.25041667,23.5607055 C10.0068333,25.9675964 12.2035833,27.7186218 14.80875,27.7678425 C12.3075,29.7649713 9.15616667,30.657096 6,30.2780968 C8.63295833,31.9971288 11.7613333,33 15.1205,33 C26.1670833,33 32.408125,23.4991797 32.031125,14.9778507 C33.1935417,14.1226415 34.2025,13.0557834 35,11.8412633 Z" fill="#FFFFFF"></path>
    </g>
</svg>